<svg width="23" height="23" viewBox="0 0 23 23" fill="none" xmlns="http://www.w3.org/2000/svg">
<path fill-rule="evenodd" clip-rule="evenodd" d="M14.2335 11.5001L22.4339 3.2997C23.1887 2.54485 23.1887 1.32099 22.4339 0.566247C21.679 -0.188605 20.4553 -0.188605 19.7004 0.566247L11.5 8.76671L3.29951 0.566139C2.54466 -0.188713 1.32091 -0.188713 0.566058 0.566139C-0.188686 1.32099 -0.188686 2.54485 0.566058 3.29959L8.76652 11.4999L0.566058 19.7004C-0.188686 20.4553 -0.188686 21.6791 0.566058 22.4339C1.32091 23.1887 2.54466 23.1887 3.29951 22.4339L11.5 14.2334L19.7004 22.4339C20.4552 23.1887 21.679 23.1887 22.4339 22.4339C23.1887 21.679 23.1887 20.4553 22.4339 19.7004L14.2335 11.5001Z" fill="#C4C4C4"/>
</svg>
